<svg width="77" height="78" viewBox="0 0 77 78" fill="none" xmlns="http://www.w3.org/2000/svg">
<g clip-path="url(#clip0_1015_1737)">
<path d="M1.6525 38.5334C1.6507 45.087 3.35389 51.486 6.59248 57.1262L1.34277 76.397L20.9584 71.226C26.3838 74.1955 32.4625 75.7515 38.6398 75.7518H38.656C59.0483 75.7518 75.6481 59.0686 75.6569 38.5628C75.6608 28.6262 71.8154 19.2826 64.8288 12.2529C57.8434 5.22382 48.5531 1.35073 38.6545 1.34619C18.2598 1.34619 1.66122 18.0285 1.6528 38.5334" fill="url(#paint0_linear_1015_1737)"/>
<path d="M0.33152 38.5211C0.329415 45.3104 2.09365 51.9383 5.44771 57.7805L0.00976562 77.7421L20.3287 72.3858C25.9272 75.4547 32.2306 77.0728 38.6446 77.0752H38.6612C59.7851 77.0752 76.9812 59.7918 76.9902 38.5519C76.9938 28.2584 73.0101 18.5788 65.7739 11.2973C58.5369 4.0167 48.9143 0.00423256 38.6612 0C17.5336 0 0.33994 17.2809 0.33152 38.5211ZM12.4319 56.7743L11.6732 55.5635C8.48393 50.4651 6.80058 44.5734 6.80299 38.5235C6.80991 20.8692 21.1006 6.50605 38.6732 6.50605C47.1831 6.50967 55.1807 9.84493 61.196 15.8963C67.211 21.9482 70.5209 29.9931 70.5188 38.5495C70.5109 56.2038 56.2199 70.5688 38.6612 70.5688H38.6485C32.9312 70.5658 27.324 69.0221 22.4339 66.105L21.2702 65.4112L9.21254 68.5895L12.4319 56.774V56.7743Z" fill="url(#paint1_linear_1015_1737)"/>
<path d="M29.0813 22.4171C28.3638 20.8138 27.6087 20.7815 26.9264 20.7534C26.3677 20.7292 25.729 20.731 25.0909 20.731C24.4522 20.731 23.4145 20.9725 22.5373 21.9355C21.6593 22.8993 19.1851 25.2284 19.1851 29.9655C19.1851 34.703 22.617 39.2811 23.0954 39.9241C23.5744 40.566 29.7209 50.5983 39.4553 54.4578C47.5454 57.6652 49.1918 57.0273 50.9476 56.8665C52.7037 56.7062 56.6141 54.5379 57.4119 52.2895C58.2102 50.0415 58.2102 48.1144 57.9709 47.7117C57.7315 47.3105 57.0928 47.0696 56.1351 46.5883C55.177 46.1067 50.4686 43.7773 49.5908 43.4559C48.7128 43.1348 48.0744 42.9746 47.4357 43.9387C46.797 44.9013 44.963 47.0696 44.404 47.7117C43.8456 48.3554 43.2866 48.4355 42.3291 47.9539C41.3708 47.4708 38.2864 46.4553 34.6272 43.1753C31.7801 40.6231 29.858 37.4714 29.2993 36.5072C28.7406 35.5446 29.2394 35.0228 29.7197 34.543C30.15 34.1116 30.6777 33.4187 31.157 32.8567C31.6345 32.2943 31.7939 31.8932 32.1133 31.251C32.4329 30.6083 32.2729 30.0459 32.0339 29.5643C31.7939 29.0827 29.9329 24.3208 29.0813 22.4171Z" fill="white"/>
</g>
<defs>
<linearGradient id="paint0_linear_1015_1737" x1="3717.05" y1="7506.43" x2="3717.05" y2="1.34619" gradientUnits="userSpaceOnUse">
<stop stop-color="#1FAF38"/>
<stop offset="1" stop-color="#60D669"/>
</linearGradient>
<linearGradient id="paint1_linear_1015_1737" x1="3849.03" y1="7774.21" x2="3849.03" y2="0" gradientUnits="userSpaceOnUse">
<stop stop-color="#F9F9F9"/>
<stop offset="1" stop-color="white"/>
</linearGradient>
<clipPath id="clip0_1015_1737">
<rect width="77" height="78" fill="white"/>
</clipPath>
</defs>
</svg>
